<svg xmlns="http://www.w3.org/2000/svg" xmlns:xlink="http://www.w3.org/1999/xlink" width="84" height="90.945" viewBox="0 0 84 90.945">
  <defs>
    <linearGradient id="linear-gradient" x1="0.5" x2="0.5" y2="1" gradientUnits="objectBoundingBox">
      <stop offset="0" stop-color="#fff7b0"/>
      <stop offset="1" stop-color="#ff79cb"/>
    </linearGradient>
  </defs>
  <g id="Group_81" data-name="Group 81" transform="translate(-375 -36.209)">
    <ellipse id="Ellipse_2" data-name="Ellipse 2" cx="42" cy="41.5" rx="42" ry="41.5" transform="translate(375 38)" fill="url(#linear-gradient)"/>
    <g id="Group_14" data-name="Group 14" transform="translate(387.683 36.209)">
      <path id="Path_52" data-name="Path 52" d="M558.653,389.447a6.248,6.248,0,0,1-.263.932l-.536,1.43h1.653L559,390.458Q558.766,389.844,558.653,389.447Z" transform="translate(-541.515 -302.868)" fill="none"/>
      <path id="Path_53" data-name="Path 53" d="M534.47,392.179l2.739-3.384v-.576h-3.494v.576h2.722q-.239.246-.505.579l-2.5,3.125v.6h3.857v-.576h-3.114Z" transform="translate(-527.287 -302.153)" fill="#4d4d4d"/>
      <path id="Path_54" data-name="Path 54" d="M556.355,388.22l-1.873,4.877h.685l.536-1.477h2.04l.569,1.477h.736l-2-4.877Zm-.465,2.874.535-1.43a6.227,6.227,0,0,0,.263-.932q.113.4.346,1.011l.509,1.351Z" transform="translate(-539.551 -302.153)" fill="#4d4d4d"/>
      <path id="Path_55" data-name="Path 55" d="M581.961,388.22h-.875l-2.422,2.419V388.22h-.645V393.1h.645v-1.69l.8-.779L581.2,393.1h.852l-2.136-2.9Z" transform="translate(-553.263 -302.153)" fill="#4d4d4d"/>
      <path id="Path_56" data-name="Path 56" d="M603.627,390.222h-2.535v-2h-.645V393.1h.645v-2.3h2.535v2.3h.646V388.22h-.646Z" transform="translate(-566.329 -302.153)" fill="#4d4d4d"/>
      <path id="Path_57" data-name="Path 57" d="M624.206,388.22l-1.873,4.877h.685l.535-1.477h2.04l.569,1.477h.735l-2-4.877Zm-.466,2.874.536-1.43a6.182,6.182,0,0,0,.263-.932q.113.4.346,1.011l.509,1.351Z" transform="translate(-579.08 -302.153)" fill="#4d4d4d"/>
      <path id="Path_58" data-name="Path 58" d="M648.5,391.614q-.177.516-.26.782-.073-.24-.233-.723l-1.155-3.453h-.971V393.1h.622v-4.152l1.411,4.152h.582l1.418-4.082V393.1h.622V388.22h-.868Z" transform="translate(-592.801 -302.153)" fill="#4d4d4d"/>
      <path id="Path_59" data-name="Path 59" d="M544.372,215.913a16.738,16.738,0,0,1-.535,3.631,18.109,18.109,0,0,1-2.773.137,14.918,14.918,0,0,0,5.125,6.213C546.628,222.323,546.286,218.77,544.372,215.913Z" transform="translate(-531.734 -201.769)" fill="#ffd62b"/>
      <path id="Path_60" data-name="Path 60" d="M549.56,192.083a39.267,39.267,0,0,1,3.974-2,13.261,13.261,0,0,0-4.006-5.033C549.587,187.82,549.591,190.138,549.56,192.083Z" transform="translate(-536.665 -183.791)" fill="#333"/>
      <rect id="Rectangle_5" data-name="Rectangle 5" width="6.335" height="11.743" transform="translate(9.358 12.687)" fill="#fff"/>
      <path id="Path_62" data-name="Path 62" d="M548.989,204.959c1.914,2.857,2.256,6.41,1.817,9.981.52.384,1.053.738,1.587,1.056,2.088-5.961,3.42-13.212.828-18.885a39.277,39.277,0,0,0-3.974,2C549.206,201.653,549.106,203.558,548.989,204.959Z" transform="translate(-536.351 -190.816)" fill="#333"/>
      <path id="Path_71" data-name="Path 71" d="M522.441,216.591a11.1,11.1,0,0,0,.474,3.1q.595-.728,1.224-1.425A6.14,6.14,0,0,1,522.441,216.591Z" transform="translate(-520.884 -202.164)" fill="#00793a"/>
      <path id="Path_72" data-name="Path 72" d="M560.1,243.944a13.709,13.709,0,0,1-3.713-1.59q-.264.753-.541,1.476A23.489,23.489,0,0,0,560.1,243.944Z" transform="translate(-540.346 -217.173)" fill="#00793a"/>
      <path id="Path_73" data-name="Path 73" d="M535.614,230.943c.161-.77.293-1.546.388-2.321a14.916,14.916,0,0,1-5.125-6.213A10.958,10.958,0,0,1,524.8,220.6q-.629.7-1.224,1.425C525.114,227.05,530.174,229.966,535.614,230.943Z" transform="translate(-521.546 -204.497)" fill="#00793a"/>
      <path id="Path_74" data-name="Path 74" d="M552.413,242.145q.713.128,1.433.211.277-.723.541-1.476c-.534-.318-1.066-.672-1.587-1.056C552.706,240.6,552.574,241.375,552.413,242.145Z" transform="translate(-538.345 -215.7)" fill="#00793a"/>
      <path id="Path_75" data-name="Path 75" d="M533.3,192.367c.272-4.874.448-7.314.448-7.314s-2.581,12.972-11.306,13.164a11.152,11.152,0,0,0,1.965,1.378A39.57,39.57,0,0,1,533.3,192.367Z" transform="translate(-520.884 -183.791)" fill="#c00029"/>
      <path id="Path_76" data-name="Path 76" d="M535.73,211.774a16.743,16.743,0,0,0,.535-3.631c-.152-.227-.312-.45-.484-.668q.141-2.763.261-4.9a39.569,39.569,0,0,0-8.894,7.228c1.524.807,2.886.835,5.485,1.06a7.953,7.953,0,0,0,.323,1.046A18.105,18.105,0,0,0,535.73,211.774Z" transform="translate(-523.626 -193.999)" fill="#c00029"/>
      <path id="Path_77" data-name="Path 77" d="M548.935,192.083c.031-1.946.027-4.263-.032-7.031,0,0-.176,2.44-.448,7.314C548.615,192.272,548.774,192.176,548.935,192.083Z" transform="translate(-536.04 -183.791)" fill="#c00029"/>
      <path id="Path_78" data-name="Path 78" d="M548.314,207.747c.117-1.4.217-3.306.257-5.851-.161.093-.32.189-.48.284q-.119,2.138-.261,4.9C548,207.3,548.162,207.52,548.314,207.747Z" transform="translate(-535.675 -193.603)" fill="#c00029"/>
      <path id="Path_79" data-name="Path 79" d="M524.139,218.262l.267-.293a11.15,11.15,0,0,1-1.965-1.378A6.14,6.14,0,0,0,524.139,218.262Z" transform="translate(-520.884 -202.164)" fill="#c00029"/>
      <path id="Path_80" data-name="Path 80" d="M526.775,219.892l-.267.293A10.959,10.959,0,0,0,532.584,222a7.946,7.946,0,0,1-.323-1.046C529.661,220.727,528.3,220.7,526.775,219.892Z" transform="translate(-523.254 -204.087)" fill="#c00029"/>
      <g id="Group_18" data-name="Group 18">
        <path id="Path_51" data-name="Path 51" d="M626.5,389.447a6.2,6.2,0,0,1-.263.932l-.536,1.43h1.654l-.509-1.351Q626.616,389.844,626.5,389.447Z" transform="translate(-581.044 -302.868)" fill="none"/>
        <path id="Path_61" data-name="Path 61" d="M544.276,255.266a49.38,49.38,0,0,0,4.829-9.669q-.719-.084-1.433-.211A48.783,48.783,0,0,1,544.276,255.266Z" transform="translate(-533.605 -218.939)" fill="#333"/>
        <path id="Path_63" data-name="Path 63" d="M557.685,333.194c-2.521-2.208-.422-9.851,1.085-14.284-.275.25-.53.5-.764.739-2.35,5.6-5.56,15.411-2.212,18.095.935.751,2.438.672,4.341-.067,2.216-.864,4.537-2.805,6.946-5.051a13.589,13.589,0,0,1-1.891-3.97C562.915,331.073,559.467,334.755,557.685,333.194Z" transform="translate(-539.474 -261.774)" fill="#333"/>
        <path id="Path_64" data-name="Path 64" d="M591.928,323.7c5.581-5.138,11.525-9.258,17.632-3.982a26.539,26.539,0,0,0,.4-3.047c0-.075,0-.15.013-.23.054-1.1-.021-2.125-.417-2.467-3.331-2.88-6.791-2.784-10.11-1.315-4.011,1.766-7.814,5.539-10.94,8.49A10.714,10.714,0,0,0,591.928,323.7Z" transform="translate(-559.374 -257.544)" fill="#333"/>
        <path id="Path_65" data-name="Path 65" d="M587.167,261.87a31.636,31.636,0,0,0-4.838,10.936c1.144-.939,2.3-1.749,2.905-2.158a32.279,32.279,0,0,1,4.942-6.925A11.869,11.869,0,0,0,587.167,261.87Z" transform="translate(-555.774 -228.543)" fill="#333"/>
        <path id="Path_66" data-name="Path 66" d="M590.392,236.848v-.16c0,.038-.006.083-.006.121a8.451,8.451,0,0,0-.281-1.2,6.088,6.088,0,0,0-1.647-2.688c-2.853-2.662-7.961-3.109-10.08-6.288a2.914,2.914,0,0,0,.025-.338,3.374,3.374,0,0,1,.409-.339,7.84,7.84,0,0,1,4.354-.925c3.351.019,6.709.223,10.054.338,1.323.044,2.631.1,3.938.162a39.483,39.483,0,0,0-8.632,6.374,11.826,11.826,0,0,1,2.6,3.385,41.994,41.994,0,0,1,21.964-9.008,8.219,8.219,0,0,0,.054-2.171c-.006-.212-.013-.429-.02-.646a28.93,28.93,0,0,0-.034-2.929h0v0l-.015,0c-5.057-.166-9.877-.587-14.934-.76q-6.856-.239-13.718-.453c-.288-.006-.581-.019-.875-.019-2.885-.051-5.675.243-6.147,3.69-.019.134-.038.275-.051.415a22.99,22.99,0,0,0,.013,5.3c0,.027.008.053.012.079a6.784,6.784,0,0,0,.64,3.1c2.664,5.014,10.647,3.954,12.238,9.8l.245-.106A28.259,28.259,0,0,0,590.392,236.848Z" transform="translate(-552.788 -203.743)" fill="#333"/>
        <path id="Path_67" data-name="Path 67" d="M617.96,285.34c-.038-2.045-2.1-5.835-10.227-8.06a9.417,9.417,0,0,1,1.636,5.084c2.4.914,5.948,2.375,7.259,3.865l.017.017a8.363,8.363,0,0,1,.948,1.8c-.189.733-.454,1.645-.564,2.019.02-.105.045-.21.075-.312a28.805,28.805,0,0,1-5.193,9.9,19.664,19.664,0,0,1-13.537,7.526,20.474,20.474,0,0,1-12.631-2.809c-3.435-2.229-4.583-5.214-5.126-8.924-.067-.4-.117-.8-.163-1.215-.079-.747-.146-1.49-.2-2.237.042-.6.109-1.2.188-1.795q.069-.488.15-.977c-.209.192-.4.384-.593.572a62.769,62.769,0,0,0,.81,12.873c1.332,7.864,10.085,10.761,17.177,10.281,9.642-.652,16.394-8.564,19.071-17.3a3.4,3.4,0,0,1-.079.337A33.789,33.789,0,0,0,617.96,285.34Z" transform="translate(-554.389 -237.521)" fill="#464545"/>
        <path id="Path_68" data-name="Path 68" d="M604.914,290.125c-.4.693-.8,1.387-1.191,2.084-.065.114-.527.79-.477.873,1.1,1.815,3.814,2.143,4.477,4.269a7.825,7.825,0,0,1,.518-.849q.611-1.033,1.209-2.074t1.192-2.084c.083-.148.521-.731.476-.873-.662-2.125-3.374-2.454-4.477-4.268.011.018-.59.971-.518.849Q605.512,289.084,604.914,290.125Z" transform="translate(-567.958 -243.301)" fill="#333"/>
        <path id="Path_69" data-name="Path 69" d="M605.35,182.029c.014.023-.738,1.214-.647,1.061-.411.7-.816,1.395-1.221,2.094A39.331,39.331,0,0,1,610.4,186.3C609.131,184.546,606.519,183.954,605.35,182.029Z" transform="translate(-568.098 -182.029)" fill="#333"/>
        <path id="Path_70" data-name="Path 70" d="M598.379,192.692c-.081.143-.658.988-.6,1.092,1.378,2.269,4.768,2.679,5.6,5.336a9.977,9.977,0,0,1,.647-1.061q.765-1.291,1.511-2.593c.5-.867,1-1.733,1.49-2.605.1-.185.651-.914.6-1.092a3.636,3.636,0,0,0-.543-1.064,39.324,39.324,0,0,0-6.922-1.117c-.1.167-.195.332-.291.5Q599.119,191.387,598.379,192.692Z" transform="translate(-564.775 -186.433)" fill="#333"/>
        <g id="Group_13" data-name="Group 13" transform="translate(0 36.145)">
          <path id="Path_81" data-name="Path 81" d="M626.705,280.36s-.284,5.318,4.875,6.065C637.182,287.235,630.5,281.007,626.705,280.36Z" transform="translate(-581.625 -275.46)" fill="none"/>
          <g id="Group_12" data-name="Group 12" transform="translate(0 0)">
            <path id="Path_82" data-name="Path 82" d="M626.705,280.36s-.284,5.318,4.875,6.065C637.182,287.235,630.5,281.007,626.705,280.36Z" transform="translate(-581.625 -275.46)" fill="none"/>
            <g id="Group_11" data-name="Group 11">
              <path id="Path_83" data-name="Path 83" d="M626.705,280.36s-.284,5.318,4.875,6.065C637.182,287.235,630.5,281.007,626.705,280.36Z" transform="translate(-581.625 -275.46)" fill="none"/>
              <path id="Path_84" data-name="Path 84" d="M572.119,276.69c-1.057-8.413-8-9.7-15.7-6.376-.04.975-.091,1.681-.091,1.681.006-.159-.052-1.2-.078-1.28V270.7c-.022-.1-.051-.188-.076-.282a32.771,32.771,0,0,0-5.345,3.031c-8.519,5.9-10.861,9.325-18.137,13.236-11.1,5.969-11.533,1.62-11.258-.1.981-6.044,8.106-17.711,7.948-17.786-.1,0-8.227,11.045-10.151,18-1.332,4.829-.672,12.151,8.774,8.115,6.708-2.872,10.882-6.474,16.346-11.061,1.586-1.327,11.6-9.751,17.811-10.506-.071,1.549-.134,10,6.829,10.193C573.037,283.76,572.661,281.014,572.119,276.69Zm-3.452,2.9c-5.159-.747-4.875-6.065-4.875-6.065C567.586,274.168,574.268,280.4,568.667,279.586Z" transform="translate(-518.711 -268.621)" fill="#333"/>
            </g>
          </g>
        </g>
        <path id="Path_85" data-name="Path 85" d="M608.539,273.075c.025.076.084,1.121.078,1.28,0,0,.051-.706.091-1.681l-.245.106c.026.094.054.184.076.282Z" transform="translate(-570.999 -234.837)" fill="#333"/>
      </g>
    </g>
  </g>
</svg>
